<mxfile host="app.diagrams.net" modified="2023-05-25T04:50:57.273Z" agent="Mozilla/5.0 (Windows NT 10.0; Win64; x64) AppleWebKit/537.36 (KHTML, like Gecko) Chrome/113.0.0.0 Safari/537.36 Edg/113.0.1774.50" etag="O-sweq3J1cqZLBxyQy2r" version="21.3.3" type="device">
  <diagram name="Страница 1" id="H7wIp3NJ-2Ua5KdRHpPb">
    <mxGraphModel dx="840" dy="458" grid="1" gridSize="10" guides="1" tooltips="1" connect="1" arrows="1" fold="1" page="1" pageScale="1" pageWidth="827" pageHeight="1169" math="0" shadow="0">
      <root>
        <mxCell id="0" />
        <mxCell id="1" parent="0" />
        <mxCell id="54pzq-xeseJ4E9jTxALY-5" value="" style="rounded=0;whiteSpace=wrap;html=1;" vertex="1" parent="1">
          <mxGeometry x="40" y="40" width="240" height="240" as="geometry" />
        </mxCell>
        <mxCell id="54pzq-xeseJ4E9jTxALY-6" value="&lt;b&gt;&lt;font style=&quot;font-size: 16px;&quot;&gt;Авторизация&lt;/font&gt;&lt;/b&gt;" style="text;html=1;strokeColor=none;fillColor=none;align=center;verticalAlign=middle;whiteSpace=wrap;rounded=0;" vertex="1" parent="1">
          <mxGeometry x="100" y="79" width="120" height="20" as="geometry" />
        </mxCell>
        <mxCell id="54pzq-xeseJ4E9jTxALY-12" value="&lt;font color=&quot;#999999&quot;&gt;логин&lt;/font&gt;" style="rounded=1;whiteSpace=wrap;html=1;strokeWidth=0;" vertex="1" parent="1">
          <mxGeometry x="65" y="128" width="190" height="20" as="geometry" />
        </mxCell>
        <mxCell id="54pzq-xeseJ4E9jTxALY-13" value="&lt;font color=&quot;#999999&quot;&gt;пароль&lt;/font&gt;" style="rounded=1;whiteSpace=wrap;html=1;strokeWidth=0;" vertex="1" parent="1">
          <mxGeometry x="65" y="168" width="190" height="20" as="geometry" />
        </mxCell>
        <mxCell id="54pzq-xeseJ4E9jTxALY-44" value="" style="group" vertex="1" connectable="0" parent="1">
          <mxGeometry x="220" y="40" width="60" height="20" as="geometry" />
        </mxCell>
        <mxCell id="54pzq-xeseJ4E9jTxALY-17" value="" style="rounded=0;whiteSpace=wrap;html=1;" vertex="1" parent="54pzq-xeseJ4E9jTxALY-44">
          <mxGeometry width="19.999999999999996" height="20" as="geometry" />
        </mxCell>
        <mxCell id="54pzq-xeseJ4E9jTxALY-18" value="" style="rounded=0;whiteSpace=wrap;html=1;" vertex="1" parent="54pzq-xeseJ4E9jTxALY-44">
          <mxGeometry x="19.999999999999996" width="19.999999999999996" height="20" as="geometry" />
        </mxCell>
        <mxCell id="54pzq-xeseJ4E9jTxALY-19" value="" style="rounded=0;whiteSpace=wrap;html=1;" vertex="1" parent="54pzq-xeseJ4E9jTxALY-44">
          <mxGeometry x="39.99999999999999" width="19.999999999999996" height="20" as="geometry" />
        </mxCell>
        <mxCell id="54pzq-xeseJ4E9jTxALY-32" value="" style="group" vertex="1" connectable="0" parent="54pzq-xeseJ4E9jTxALY-44">
          <mxGeometry x="45.333333333333336" y="5.333333333333333" width="9.999999999999998" height="10" as="geometry" />
        </mxCell>
        <mxCell id="54pzq-xeseJ4E9jTxALY-33" value="" style="endArrow=none;html=1;rounded=0;strokeWidth=3;strokeColor=#000000;" edge="1" parent="54pzq-xeseJ4E9jTxALY-32">
          <mxGeometry width="50" height="50" relative="1" as="geometry">
            <mxPoint y="10" as="sourcePoint" />
            <mxPoint x="9.999999999999998" as="targetPoint" />
          </mxGeometry>
        </mxCell>
        <mxCell id="54pzq-xeseJ4E9jTxALY-34" value="" style="endArrow=none;html=1;rounded=0;strokeWidth=3;strokeColor=#000000;" edge="1" parent="54pzq-xeseJ4E9jTxALY-32">
          <mxGeometry width="50" height="50" relative="1" as="geometry">
            <mxPoint as="sourcePoint" />
            <mxPoint x="9.999999999999998" y="10" as="targetPoint" />
          </mxGeometry>
        </mxCell>
        <mxCell id="54pzq-xeseJ4E9jTxALY-38" value="" style="endArrow=none;html=1;rounded=0;strokeWidth=3;" edge="1" parent="54pzq-xeseJ4E9jTxALY-44">
          <mxGeometry width="50" height="50" relative="1" as="geometry">
            <mxPoint x="3.333333333333333" y="10.219999999999988" as="sourcePoint" />
            <mxPoint x="16.666666666666668" y="10.219999999999988" as="targetPoint" />
          </mxGeometry>
        </mxCell>
        <mxCell id="54pzq-xeseJ4E9jTxALY-41" value="" style="rounded=0;whiteSpace=wrap;html=1;strokeWidth=2;" vertex="1" parent="54pzq-xeseJ4E9jTxALY-44">
          <mxGeometry x="25.666666666666668" y="6.166666666666666" width="8.666666666666666" height="8.333333333333332" as="geometry" />
        </mxCell>
        <mxCell id="54pzq-xeseJ4E9jTxALY-45" value="" style="rounded=0;whiteSpace=wrap;html=1;" vertex="1" parent="1">
          <mxGeometry x="360" y="40" width="280" height="320" as="geometry" />
        </mxCell>
        <mxCell id="54pzq-xeseJ4E9jTxALY-46" value="" style="group" vertex="1" connectable="0" parent="1">
          <mxGeometry x="580" y="40" width="60" height="20" as="geometry" />
        </mxCell>
        <mxCell id="54pzq-xeseJ4E9jTxALY-47" value="" style="rounded=0;whiteSpace=wrap;html=1;" vertex="1" parent="54pzq-xeseJ4E9jTxALY-46">
          <mxGeometry width="19.999999999999996" height="20" as="geometry" />
        </mxCell>
        <mxCell id="54pzq-xeseJ4E9jTxALY-48" value="" style="rounded=0;whiteSpace=wrap;html=1;" vertex="1" parent="54pzq-xeseJ4E9jTxALY-46">
          <mxGeometry x="19.999999999999996" width="19.999999999999996" height="20" as="geometry" />
        </mxCell>
        <mxCell id="54pzq-xeseJ4E9jTxALY-49" value="" style="rounded=0;whiteSpace=wrap;html=1;" vertex="1" parent="54pzq-xeseJ4E9jTxALY-46">
          <mxGeometry x="39.99999999999999" width="19.999999999999996" height="20" as="geometry" />
        </mxCell>
        <mxCell id="54pzq-xeseJ4E9jTxALY-50" value="" style="group" vertex="1" connectable="0" parent="54pzq-xeseJ4E9jTxALY-46">
          <mxGeometry x="45.333333333333336" y="5.333333333333333" width="9.999999999999998" height="10" as="geometry" />
        </mxCell>
        <mxCell id="54pzq-xeseJ4E9jTxALY-51" value="" style="endArrow=none;html=1;rounded=0;strokeWidth=3;strokeColor=#000000;" edge="1" parent="54pzq-xeseJ4E9jTxALY-50">
          <mxGeometry width="50" height="50" relative="1" as="geometry">
            <mxPoint y="10" as="sourcePoint" />
            <mxPoint x="9.999999999999998" as="targetPoint" />
          </mxGeometry>
        </mxCell>
        <mxCell id="54pzq-xeseJ4E9jTxALY-52" value="" style="endArrow=none;html=1;rounded=0;strokeWidth=3;strokeColor=#000000;" edge="1" parent="54pzq-xeseJ4E9jTxALY-50">
          <mxGeometry width="50" height="50" relative="1" as="geometry">
            <mxPoint as="sourcePoint" />
            <mxPoint x="9.999999999999998" y="10" as="targetPoint" />
          </mxGeometry>
        </mxCell>
        <mxCell id="54pzq-xeseJ4E9jTxALY-53" value="" style="endArrow=none;html=1;rounded=0;strokeWidth=3;" edge="1" parent="54pzq-xeseJ4E9jTxALY-46">
          <mxGeometry width="50" height="50" relative="1" as="geometry">
            <mxPoint x="3.333333333333333" y="10.219999999999988" as="sourcePoint" />
            <mxPoint x="16.666666666666668" y="10.219999999999988" as="targetPoint" />
          </mxGeometry>
        </mxCell>
        <mxCell id="54pzq-xeseJ4E9jTxALY-54" value="" style="rounded=0;whiteSpace=wrap;html=1;strokeWidth=2;" vertex="1" parent="54pzq-xeseJ4E9jTxALY-46">
          <mxGeometry x="25.666666666666668" y="6.166666666666666" width="8.666666666666666" height="8.333333333333332" as="geometry" />
        </mxCell>
        <mxCell id="54pzq-xeseJ4E9jTxALY-59" value="&lt;b&gt;&lt;font style=&quot;font-size: 16px;&quot;&gt;Регистрация&lt;/font&gt;&lt;/b&gt;" style="text;html=1;strokeColor=none;fillColor=none;align=center;verticalAlign=middle;whiteSpace=wrap;rounded=0;" vertex="1" parent="1">
          <mxGeometry x="440" y="79" width="120" height="20" as="geometry" />
        </mxCell>
        <mxCell id="54pzq-xeseJ4E9jTxALY-60" value="&lt;font color=&quot;#999999&quot;&gt;фамилия&lt;/font&gt;" style="rounded=1;whiteSpace=wrap;html=1;strokeWidth=0;" vertex="1" parent="1">
          <mxGeometry x="405" y="128" width="190" height="20" as="geometry" />
        </mxCell>
        <mxCell id="54pzq-xeseJ4E9jTxALY-61" value="&lt;font color=&quot;#999999&quot;&gt;имя&lt;/font&gt;" style="rounded=1;whiteSpace=wrap;html=1;strokeWidth=0;" vertex="1" parent="1">
          <mxGeometry x="405" y="168" width="190" height="20" as="geometry" />
        </mxCell>
        <mxCell id="54pzq-xeseJ4E9jTxALY-64" value="&lt;font color=&quot;#999999&quot;&gt;логин&lt;/font&gt;" style="rounded=1;whiteSpace=wrap;html=1;strokeWidth=0;" vertex="1" parent="1">
          <mxGeometry x="405" y="210" width="190" height="20" as="geometry" />
        </mxCell>
        <mxCell id="54pzq-xeseJ4E9jTxALY-65" value="&lt;font color=&quot;#999999&quot;&gt;пароль&lt;/font&gt;" style="rounded=1;whiteSpace=wrap;html=1;strokeWidth=0;" vertex="1" parent="1">
          <mxGeometry x="405" y="250" width="190" height="20" as="geometry" />
        </mxCell>
        <mxCell id="54pzq-xeseJ4E9jTxALY-71" value="" style="group" vertex="1" connectable="0" parent="1">
          <mxGeometry x="470" y="310" width="125" height="20" as="geometry" />
        </mxCell>
        <mxCell id="54pzq-xeseJ4E9jTxALY-67" value="" style="html=1;shadow=0;dashed=0;shape=mxgraph.bootstrap.rrect;rSize=5;strokeColor=#343A40;strokeWidth=1;fillColor=none;fontColor=#343A40;whiteSpace=wrap;align=center;verticalAlign=middle;spacingLeft=0;fontStyle=0;fontSize=16;spacing=5;horizontal=1;labelPosition=center;verticalLabelPosition=middle;" vertex="1" parent="54pzq-xeseJ4E9jTxALY-71">
          <mxGeometry width="125" height="20" as="geometry" />
        </mxCell>
        <mxCell id="54pzq-xeseJ4E9jTxALY-68" value="Зарегистрироваться" style="text;html=1;strokeColor=none;fillColor=none;align=center;verticalAlign=middle;whiteSpace=wrap;rounded=0;" vertex="1" parent="54pzq-xeseJ4E9jTxALY-71">
          <mxGeometry x="2.5" width="120" height="20" as="geometry" />
        </mxCell>
        <mxCell id="54pzq-xeseJ4E9jTxALY-72" value="" style="group" vertex="1" connectable="0" parent="1">
          <mxGeometry x="405" y="310" width="55" height="20" as="geometry" />
        </mxCell>
        <mxCell id="54pzq-xeseJ4E9jTxALY-66" value="" style="html=1;shadow=0;dashed=0;shape=mxgraph.bootstrap.rrect;rSize=5;strokeColor=#343A40;strokeWidth=1;fillColor=none;fontColor=#343A40;whiteSpace=wrap;align=center;verticalAlign=middle;spacingLeft=0;fontStyle=0;fontSize=16;spacing=5;" vertex="1" parent="54pzq-xeseJ4E9jTxALY-72">
          <mxGeometry width="55" height="20" as="geometry" />
        </mxCell>
        <mxCell id="54pzq-xeseJ4E9jTxALY-69" value="Назад" style="text;html=1;strokeColor=none;fillColor=none;align=center;verticalAlign=middle;whiteSpace=wrap;rounded=0;" vertex="1" parent="54pzq-xeseJ4E9jTxALY-72">
          <mxGeometry width="55" height="20" as="geometry" />
        </mxCell>
        <mxCell id="54pzq-xeseJ4E9jTxALY-85" value="" style="rounded=1;whiteSpace=wrap;html=1;" vertex="1" parent="1">
          <mxGeometry x="165" y="230" width="90" height="20" as="geometry" />
        </mxCell>
        <mxCell id="54pzq-xeseJ4E9jTxALY-86" value="" style="rounded=1;whiteSpace=wrap;html=1;" vertex="1" parent="1">
          <mxGeometry x="65" y="230" width="90" height="20" as="geometry" />
        </mxCell>
        <mxCell id="54pzq-xeseJ4E9jTxALY-87" value="Войти" style="text;html=1;strokeColor=none;fillColor=none;align=center;verticalAlign=middle;whiteSpace=wrap;rounded=0;" vertex="1" parent="1">
          <mxGeometry x="170" y="230" width="80" height="20" as="geometry" />
        </mxCell>
        <mxCell id="54pzq-xeseJ4E9jTxALY-88" value="Регистрация" style="text;html=1;strokeColor=none;fillColor=none;align=center;verticalAlign=middle;whiteSpace=wrap;rounded=0;" vertex="1" parent="1">
          <mxGeometry x="70" y="230" width="80" height="20" as="geometry" />
        </mxCell>
      </root>
    </mxGraphModel>
  </diagram>
</mxfile>
